<svg xmlns="http://www.w3.org/2000/svg" xmlns:xlink="http://www.w3.org/1999/xlink" version="1.1" x="0px" y="0px" viewBox="0 0 512 640" style="enable-background:new 0 0 512 512;" xml:space="preserve"><g><path d="M377.4,216.2l84.6-32.3c4.1,5.5,10.6,8.9,17.8,8.9c2.7,0,5.4-0.5,8-1.5c5.5-2.2,9.9-6.3,12.3-11.8   c2.4-5.4,2.5-11.4,0.4-16.9c-3.3-8.5-11.6-14.2-20.7-14.2c-2.7,0-5.4,0.5-8,1.5c-9.4,3.7-15,13.1-14.1,22.8L373.1,205   c-5.6-12.6-13.2-24.2-22.4-34.3l23.2-23.2c3.3,1.8,7,2.8,10.9,2.8c5.9,0,11.5-2.3,15.7-6.5c4.2-4.2,6.5-9.8,6.5-15.7   s-2.3-11.5-6.5-15.7c-4.2-4.2-9.8-6.5-15.7-6.5c-5.9,0-11.5,2.3-15.7,6.5c-7.2,7.2-8.4,18.1-3.6,26.5l-23.2,23.2   c-8.6-7.8-18.3-14.5-28.7-19.8l37-82.7c1,0.1,2.1,0.2,3.1,0.2c8.8,0,16.8-5.2,20.3-13.2c2.4-5.4,2.5-11.4,0.4-17   c-2.1-5.5-6.3-9.9-11.7-12.3c-2.9-1.3-5.9-1.9-9-1.9c-8.8,0-16.7,5.2-20.3,13.2c-4.1,9.2-1.3,19.8,6.2,26.1l-37.1,82.8   c-12.5-4.9-26-7.8-40-8.5V96.4c9.3-2.6,16.2-11.2,16.2-21.3c0-12.2-9.9-22.2-22.2-22.2c-12.2,0-22.2,10-22.2,22.2   c0,10.1,6.9,18.7,16.2,21.3v32.7c-11.9,0.6-23.4,2.8-34.3,6.4l-32.3-84.7c7.8-5.8,11.1-16.3,7.4-25.8c-3.3-8.6-11.4-14.2-20.7-14.2   c-2.8,0-5.5,0.5-8,1.5c-5.5,2.1-9.9,6.3-12.3,11.7c-2.4,5.4-2.6,11.5-0.4,17c3.4,8.6,11.5,14.2,20.7,14.2c0.7,0,1.4,0,2.1-0.1   l32.3,84.7c-12.6,5.6-24.2,13.2-34.3,22.4L147.6,139c1.8-3.3,2.8-7,2.8-10.9c0-5.9-2.3-11.5-6.5-15.7c-4.2-4.2-9.8-6.5-15.7-6.5   c-5.9,0-11.5,2.3-15.7,6.5c-4.2,4.2-6.5,9.8-6.5,15.7s2.3,11.5,6.5,15.7c4.2,4.2,9.7,6.5,15.7,6.5c3.9,0,7.6-1,10.9-2.8l23.2,23.2   c-7.8,8.6-14.5,18.3-19.8,28.8l-82.7-37.1c1.4-9.6-3.7-19.3-13-23.4c-2.9-1.3-5.9-1.9-9-1.9c-8.8,0-16.7,5.2-20.3,13.2   c-5,11.2,0.1,24.3,11.3,29.3c2.9,1.3,5.9,1.9,9,1.9c6.7,0,12.9-3.1,17.1-8.1l82.7,37.1c-4.9,12.5-7.8,26-8.5,40.1H96.4   c-2.6-9.3-11.2-16.2-21.3-16.2c-12.2,0-22.2,10-22.2,22.2c0,12.2,9.9,22.1,22.2,22.1c10.1,0,18.7-6.8,21.3-16.1h32.7   c0.6,11.9,2.8,23.4,6.4,34.3l-84.6,32.3c-4.1-5.5-10.6-8.9-17.7-8.9c-2.8,0-5.5,0.5-8,1.5c-5.5,2.1-9.9,6.3-12.3,11.7   c-2.4,5.4-2.5,11.5-0.4,17c3.3,8.5,11.6,14.2,20.7,14.2c2.7,0,5.4-0.5,8-1.5c9.4-3.7,15-13.2,14.1-22.8l84.7-32.3   c5.6,12.6,13.2,24.2,22.4,34.3l-23.2,23.2c-3.3-1.8-7-2.8-10.9-2.8c-5.9,0-11.5,2.3-15.7,6.5c-8.6,8.7-8.6,22.7,0,31.4   c4.2,4.2,9.7,6.5,15.7,6.5c5.9,0,11.5-2.3,15.7-6.5c7.1-7.2,8.3-18.1,3.6-26.6l23.2-23.2c8.6,7.8,18.2,14.5,28.7,19.7l-37,82.8   c-1.1-0.2-2.1-0.2-3.2-0.2c-8.7,0-16.7,5.2-20.2,13.2c-4.9,11.1,0.1,24.3,11.3,29.3c2.8,1.2,5.8,1.9,8.9,1.9   c8.8,0,16.8-5.2,20.3-13.2c2.4-5.4,2.5-11.4,0.4-17c-1.4-3.6-3.7-6.7-6.5-9.1l37-82.8c12.5,4.9,26,7.8,40,8.5v32.7   c-9.3,2.6-16.2,11.2-16.2,21.4c0,12.2,9.9,22.1,22.2,22.1c12.2,0,22.2-9.9,22.2-22.1c0-10.2-6.9-18.7-16.2-21.4v-32.7   c11.9-0.6,23.4-2.8,34.3-6.4l32.3,84.7c-7.7,5.8-11.1,16.3-7.4,25.8c3.3,8.6,11.5,14.2,20.7,14.2c2.7,0,5.4-0.5,8-1.5   c11.4-4.4,17.1-17.3,12.7-28.7c-3.4-8.6-11.5-14.2-20.7-14.2c-0.7,0-1.4,0-2.1,0.1L308,373.1c12.6-5.6,24.2-13.2,34.3-22.4   l23.2,23.2c-4.7,8.5-3.5,19.4,3.6,26.6c4.2,4.2,9.8,6.5,15.7,6.5c5.9,0,11.5-2.3,15.7-6.5c8.6-8.7,8.6-22.7,0-31.4   c-4.2-4.2-9.8-6.5-15.7-6.5c-3.9,0-7.6,1-10.9,2.8l-23.1-23.2c7.8-8.6,14.5-18.3,19.8-28.8l82.7,37.1c-1.4,9.6,3.7,19.3,13,23.4   c2.9,1.3,5.9,1.9,9,1.9c8.8,0,16.7-5.2,20.3-13.2c4.9-11.2-0.1-24.3-11.3-29.3c-2.8-1.3-5.8-1.9-8.9-1.9c-6.7,0-12.9,3-17.1,8.1   l-82.7-37.1c4.9-12.5,7.8-26,8.5-40.1h32.7c2.6,9.3,11.2,16.1,21.3,16.1c12.2,0,22.2-9.9,22.2-22.1c0-12.2-9.9-22.2-22.2-22.2   c-10.1,0-18.7,6.9-21.3,16.2h-32.7C383.3,238.5,381,227,377.4,216.2z M476.2,161c1.2-0.5,2.4-0.7,3.7-0.7c4.2,0,7.9,2.6,9.5,6.6   c1,2.5,0.9,5.3-0.2,7.7c-1.1,2.5-3.1,4.4-5.6,5.4c-1.2,0.4-2.4,0.7-3.6,0.7c-4.3,0-8-2.6-9.5-6.5c0,0,0,0,0,0c0,0,0,0,0,0   C468.3,169,470.9,163.1,476.2,161z M344.4,33.6c1.6-3.7,5.3-6,9.3-6c1.4,0,2.8,0.3,4.1,0.9c2.5,1.1,4.4,3.1,5.4,5.6   c1,2.5,0.9,5.3-0.2,7.8c-1.6,3.7-5.3,6.1-9.4,6.1c-1.4,0-2.8-0.3-4-0.8C344.5,44.7,342.1,38.7,344.4,33.6z M161.1,36.7   c-1-2.5-0.9-5.3,0.2-7.8c1.1-2.5,3.1-4.4,5.7-5.4c1.2-0.5,2.4-0.7,3.7-0.7c4.2,0,7.9,2.6,9.5,6.5c2,5.2-0.6,11.2-5.9,13.2   c-1.2,0.5-2.4,0.7-3.7,0.7C166.4,43.2,162.6,40.6,161.1,36.7z M37.8,169.4c-1.4,0-2.8-0.3-4.1-0.9c-5.1-2.3-7.4-8.3-5.2-13.5   c1.6-3.7,5.3-6.1,9.3-6.1c1.4,0,2.8,0.3,4.1,0.9c5.1,2.3,7.5,8.3,5.2,13.4C45.5,167,41.8,169.4,37.8,169.4z M36.8,351.9   c-1.2,0.5-2.4,0.7-3.7,0.7c-4.2,0-8-2.6-9.5-6.6c-1-2.5-0.9-5.3,0.2-7.8c1.1-2.5,3.1-4.4,5.6-5.3c1.2-0.5,2.4-0.7,3.7-0.7   c4.2,0,7.9,2.6,9.5,6.5C44.6,343.9,42,349.8,36.8,351.9z M168.6,479.3c-1.6,3.7-5.3,6.1-9.4,6.1c-1.4,0-2.8-0.3-4-0.8   c-5.1-2.3-7.5-8.4-5.2-13.5c1.6-3.7,5.3-6.1,9.3-6.1c1.4,0,2.8,0.3,4.1,0.9c2.5,1.1,4.4,3.1,5.4,5.6   C169.7,474.1,169.7,476.9,168.6,479.3z M351.8,476.3c2,5.2-0.6,11.1-5.8,13.2c-1.2,0.5-2.4,0.7-3.7,0.7c-4.3,0-8-2.6-9.5-6.5   c-2-5.2,0.6-11.2,5.8-13.2c1.2-0.5,2.4-0.7,3.7-0.7C346.5,469.7,350.3,472.3,351.8,476.3z M475.2,343.5c1.4,0,2.8,0.3,4.1,0.9   c5.1,2.3,7.5,8.3,5.2,13.5c-1.6,3.7-5.3,6-9.3,6c-1.4,0-2.8-0.3-4.1-0.9c-5.1-2.3-7.5-8.3-5.2-13.4   C467.5,345.9,471.1,343.5,475.2,343.5z M362.4,302.5c-0.1,0.2-0.2,0.4-0.3,0.6c-0.1,0.2-0.2,0.5-0.3,0.7c-12.3,27.3-35,49-62.9,60   c-0.3,0.1-0.5,0.1-0.7,0.2c-0.3,0.1-0.5,0.2-0.7,0.3c-12.7,4.8-26.5,7.5-40.9,7.5c-16.5,0-32.2-3.5-46.4-9.8   c-0.1,0-0.2-0.1-0.3-0.1c-0.1-0.1-0.2-0.1-0.4-0.1c-27.5-12.3-49.3-35-60.4-63.1c-0.1-0.3-0.1-0.5-0.2-0.8   c-0.1-0.2-0.2-0.5-0.3-0.7c-4.8-12.6-7.4-26.2-7.5-40.5c0-0.1,0-0.3,0-0.5s0-0.3,0-0.5c0.1-16.3,3.5-31.8,9.7-45.9   c0.1-0.1,0.1-0.3,0.2-0.4c0.1-0.2,0.2-0.4,0.2-0.6c12.3-27.4,35-49.1,63.1-60.2c0.2-0.1,0.4-0.1,0.6-0.2c0.2-0.1,0.5-0.2,0.7-0.3   c12.5-4.8,26-7.4,40.2-7.5c0.3,0,0.5,0.1,0.8,0.1c0.3,0,0.5,0,0.8-0.1c16.2,0.1,31.6,3.6,45.6,9.7c0.1,0.1,0.2,0.1,0.3,0.2   c0.1,0.1,0.3,0.1,0.4,0.2c27.4,12.3,49.2,35,60.3,63.1c0.1,0.2,0.1,0.5,0.2,0.7c0.1,0.2,0.2,0.4,0.3,0.6   c4.8,12.6,7.5,26.2,7.5,40.5c0,0.2,0,0.4,0,0.6c0,0.2,0,0.4,0,0.6C371.9,273.2,368.5,288.6,362.4,302.5z M377.5,121   c1.9-1.9,4.5-3,7.2-3c2.7,0,5.3,1.1,7.2,3c1.9,1.9,3,4.5,3,7.2c0,2.7-1.1,5.3-3,7.2c-1.9,1.9-4.5,3-7.2,3c-2.7,0-5.3-1.1-7.2-3   C373.5,131.4,373.5,124.9,377.5,121z M246.3,75c0-5.6,4.6-10.2,10.2-10.2c5.6,0,10.2,4.6,10.2,10.2c0,5.6-4.6,10.1-10.2,10.1   C250.9,85.2,246.3,80.6,246.3,75z M121,135.4c-1.9-1.9-3-4.5-3-7.2c0-2.7,1.1-5.3,3-7.2c1.9-1.9,4.4-3,7.2-3c2.7,0,5.3,1.1,7.2,3   c1.9,1.9,3,4.5,3,7.2c0,2.7-1.1,5.3-3,7.2c-1.9,1.9-4.5,3-7.2,3C125.5,138.3,123,137.3,121,135.4z M75.1,266.6   c-5.6,0-10.2-4.6-10.2-10.1c0-5.6,4.6-10.2,10.2-10.2s10.2,4.6,10.2,10.2C85.3,262.1,80.7,266.6,75.1,266.6z M135.4,392   c-1.9,1.9-4.5,3-7.2,3c-2.7,0-5.3-1.1-7.2-3c-4-4-4-10.5,0-14.5c1.9-1.9,4.5-3,7.2-3c2.7,0,5.3,1.1,7.2,3   C139.4,381.5,139.4,388,135.4,392z M266.6,437.9c0,5.6-4.6,10.1-10.2,10.1c-5.6,0-10.2-4.6-10.2-10.1c0-5.6,4.6-10.2,10.2-10.2   C262.1,427.7,266.6,432.3,266.6,437.9z M391.9,377.5c4,4,4,10.5,0,14.5c-1.9,1.9-4.5,3-7.2,3c-2.7,0-5.3-1.1-7.2-2.9   c-4-4-4-10.5,0-14.5c1.9-1.9,4.5-3,7.2-3C387.4,374.6,390,375.6,391.9,377.5z M437.8,246.3c5.6,0,10.2,4.6,10.2,10.2   c0,5.6-4.6,10.1-10.2,10.1s-10.2-4.6-10.2-10.1C427.7,250.9,432.2,246.3,437.8,246.3z"/><path d="M259.9,165.8c-14.2,0-25.8,11.6-25.8,25.9c0,14.2,11.6,25.8,25.8,25.8c14.3,0,25.9-11.6,25.9-25.8   C285.7,177.5,274.1,165.8,259.9,165.8z M259.9,205.6c-7.6,0-13.8-6.2-13.8-13.8c0-7.7,6.2-13.9,13.8-13.9c7.6,0,13.9,6.2,13.9,13.9   C273.7,199.3,267.5,205.6,259.9,205.6z"/><path d="M188.4,222.7c-14.2,0-25.8,11.6-25.8,25.8c0,14.2,11.6,25.8,25.8,25.8c14.3,0,25.8-11.6,25.8-25.8   C214.2,234.3,202.6,222.7,188.4,222.7z M188.4,262.3c-7.6,0-13.8-6.2-13.8-13.8c0-7.6,6.2-13.8,13.8-13.8c7.6,0,13.8,6.2,13.8,13.8   C202.2,256.1,196,262.3,188.4,262.3z"/><path d="M306.7,246.4c-14.3,0-25.8,11.6-25.8,25.8c0,14.3,11.6,25.9,25.8,25.9c14.2,0,25.8-11.6,25.8-25.9   C332.6,258,321,246.4,306.7,246.4z M306.7,286.1c-7.6,0-13.8-6.2-13.8-13.9c0-7.6,6.2-13.8,13.8-13.8c7.6,0,13.8,6.2,13.8,13.8   C320.6,279.9,314.4,286.1,306.7,286.1z"/><path d="M238.6,299.7c-14.2,0-25.8,11.6-25.8,25.9c0,14.2,11.6,25.8,25.8,25.8c14.3,0,25.8-11.6,25.8-25.8   C264.5,311.4,252.9,299.7,238.6,299.7z M238.6,339.4c-7.6,0-13.8-6.2-13.8-13.8c0-7.7,6.2-13.9,13.8-13.9c7.6,0,13.8,6.2,13.8,13.9   C252.5,333.2,246.2,339.4,238.6,339.4z"/><path d="M251.4,247.8c-8.5,0-15.5,7-15.5,15.5s7,15.5,15.5,15.5c8.5,0,15.5-7,15.5-15.5S259.9,247.8,251.4,247.8z M251.4,266.8   c-1.9,0-3.5-1.6-3.5-3.5s1.6-3.5,3.5-3.5c1.9,0,3.5,1.6,3.5,3.5S253.3,266.8,251.4,266.8z"/></g><text x="0" y="527" fill="#000000" font-size="5px" font-weight="bold" font-family="'Helvetica Neue', Helvetica, Arial-Unicode, Arial, Sans-serif">Created by ibrandify</text><text x="0" y="532" fill="#000000" font-size="5px" font-weight="bold" font-family="'Helvetica Neue', Helvetica, Arial-Unicode, Arial, Sans-serif">from the Noun Project</text></svg>