<svg xmlns:dc="http://purl.org/dc/elements/1.1/" xmlns:cc="http://creativecommons.org/ns#" xmlns:rdf="http://www.w3.org/1999/02/22-rdf-syntax-ns#" xmlns:svg="http://www.w3.org/2000/svg" xmlns="http://www.w3.org/2000/svg" xmlns:sodipodi="http://sodipodi.sourceforge.net/DTD/sodipodi-0.dtd" xmlns:inkscape="http://www.inkscape.org/namespaces/inkscape" version="1.1" x="0px" y="0px" viewBox="0 0 100 125"><g transform="translate(0,-952.36218)"><path style="text-indent:0;text-transform:none;direction:ltr;block-progression:tb;baseline-shift:baseline;color:#000000;enable-background:accumulate;" d="m 32.717508,970.40919 c -0.407585,0.0588 -0.795479,0.24708 -1.09369,0.53092 -1.415219,1.32604 -2.359572,3.10908 -2.999836,5.05928 -1.960593,0.63919 -3.761538,1.60948 -5.093472,3.02933 -0.677153,0.73048 -0.677153,1.98654 0,2.71702 1.331164,1.41904 3.134281,2.39003 5.093472,3.02933 0.639661,1.95805 1.579975,3.7289 2.999836,5.05928 0.733977,0.69434 2.015873,0.69434 2.74985,0 1.419861,-1.33038 2.360175,-3.10123 2.999836,-5.05928 1.959189,-0.6393 3.762306,-1.6103 5.093471,-3.02933 0.677153,-0.73048 0.677153,-1.98654 0,-2.71702 -1.331935,-1.41984 -3.13288,-2.39014 -5.093471,-3.02933 -0.640264,-1.9502 -1.584618,-3.73324 -2.999836,-5.05928 -0.434659,-0.41305 -1.062201,-0.61422 -1.65616,-0.53092 z m 33.998142,0 c -0.407586,0.0588 -0.79548,0.24708 -1.09369,0.53092 -1.415219,1.32604 -2.359572,3.10908 -2.999836,5.05928 -1.960591,0.63919 -3.761537,1.60949 -5.093472,3.02933 -0.677153,0.73048 -0.677153,1.98654 0,2.71702 1.331165,1.41903 3.134283,2.39003 5.093472,3.02933 0.639661,1.95805 1.579974,3.7289 2.999836,5.05928 0.733977,0.69434 2.015873,0.69434 2.749849,0 1.419862,-1.33038 2.360175,-3.10123 2.999837,-5.05928 1.95919,-0.6393 3.762308,-1.61029 5.093471,-3.02933 0.677153,-0.73048 0.677153,-1.98654 0,-2.71702 -1.331933,-1.41985 -3.132879,-2.39014 -5.093471,-3.02933 -0.640264,-1.9502 -1.584618,-3.73324 -2.999837,-5.05928 -0.434658,-0.41305 -1.0622,-0.61422 -1.656159,-0.53092 z m -33.716907,5.21544 c 0.387766,0.69958 0.699593,1.50342 0.9062,2.37349 0.162492,0.71809 0.753749,1.32157 1.46867,1.49905 0.870576,0.20649 1.674889,0.51813 2.37487,0.90567 -0.699979,0.38755 -1.504291,0.69919 -2.37487,0.90568 -0.707195,0.17255 -1.29602,0.76103 -1.46867,1.46782 -0.206608,0.87007 -0.518434,1.67391 -0.9062,2.37349 -0.387766,-0.69958 -0.699592,-1.50342 -0.906201,-2.37349 -0.172649,-0.70679 -0.761474,-1.29527 -1.468669,-1.46782 -0.870582,-0.20649 -1.674891,-0.51813 -2.374871,-0.90568 0.699981,-0.38754 1.504292,-0.69918 2.374871,-0.90567 0.714921,-0.17748 1.306177,-0.78096 1.468669,-1.49905 0.206608,-0.87007 0.518435,-1.67391 0.906201,-2.37349 z m 33.998142,0 c 0.387765,0.69958 0.699592,1.50342 0.9062,2.37349 0.162492,0.71809 0.753749,1.32157 1.46867,1.49905 0.870578,0.20649 1.674889,0.51813 2.37487,0.90567 -0.69998,0.38755 -1.504289,0.69919 -2.37487,0.90568 -0.707196,0.17255 -1.29602,0.76103 -1.46867,1.46782 -0.206609,0.87007 -0.518435,1.67391 -0.9062,2.37349 -0.387766,-0.69958 -0.699592,-1.50342 -0.906201,-2.37349 -0.172649,-0.70679 -0.761474,-1.29527 -1.46867,-1.46782 -0.870579,-0.20649 -1.67489,-0.51813 -2.37487,-0.90568 0.699982,-0.38754 1.504294,-0.69918 2.37487,-0.90567 0.714921,-0.17748 1.306178,-0.78096 1.46867,-1.49905 0.206608,-0.87007 0.518435,-1.67391 0.906201,-2.37349 z m -17.280306,8.77567 c -0.407586,0.0588 -0.795479,0.24708 -1.09369,0.53092 -1.756844,1.64614 -2.949772,3.87539 -3.718547,6.33972 -2.475554,0.76737 -4.722261,1.98614 -6.374651,3.74762 -0.677153,0.73047 -0.677153,1.98654 0,2.71702 1.651735,1.7607 3.900262,2.98012 6.374651,3.74762 0.768774,2.4642 1.961696,4.6936 3.718547,6.3397 0.733977,0.6944 2.015873,0.6944 2.74985,0 1.756851,-1.6461 2.949772,-3.8755 3.718546,-6.3397 2.474386,-0.7675 4.722913,-1.98692 6.374652,-3.74762 0.677153,-0.73048 0.677153,-1.98655 0,-2.71702 -1.652394,-1.76148 -3.899101,-2.98025 -6.374652,-3.74762 -0.768775,-2.46433 -1.961702,-4.69358 -3.718546,-6.33972 -0.434659,-0.41305 -1.062201,-0.61422 -1.65616,-0.53092 z m -32.498224,2.12365 c -2.198032,0.12842 -4.335104,1.33473 -5.036515,3.86254 -0.07862,0.2974 -0.124121,0.44146 -0.181949,0.82199 l -1.9998911,21.98602 c -0.00293,0.062 -0.00293,0.125 0,0.1874 0.030268,3.8174 2.6540391,6.3793 3.5310571,7.3391 0.0302,0.032 0.06148,0.063 0.09375,0.094 4.404206,4.217 9.901446,8.0709 13.280524,12.211 l -0.906201,9.1189 c -0.104586,1.0456 0.751013,2.0923 1.797099,2.1985 1.046085,0.1062 2.094783,-0.7472 2.202683,-1.7926 l 0.999945,-9.9936 c 0.04657,-0.497 -0.101627,-1.0097 -0.406228,-1.4054 -3.914429,-5.1311 -9.916249,-9.1429 -14.124228,-13.1479 -0.03122,-0.031 -0.06439,-0.064 -0.09374,-0.094 -0.994808,-1.0906 -2.345097,-2.6393 -2.37487,-4.5284 -1.63e-4,-0.01 8.2e-5,-0.021 0,-0.031 0.689882,-7.2091 1.259573,-14.51473 1.999891,-21.67377 0.368499,-2.42876 3.022627,-0.7023 2.999836,-0.49968 -0.324345,6.35241 -0.665088,12.72305 -0.999945,19.08165 -0.03255,0.5927 0.215513,1.1948 0.656214,1.5927 l 8.999508,7.9949 c 0.776266,0.7084 2.128894,0.6441 2.834377,-0.1347 0.705482,-0.7789 0.63532,-2.1304 -0.147024,-2.8321 l -7.49959,-6.6833 c 0.09578,-0.2271 0.149057,-0.472 0.156241,-0.7183 0.07512,-1.4008 0.742391,-2.4514 1.406174,-2.8732 0.654507,-0.4159 1.230703,-0.5311 2.312373,0.3123 3.417831,2.8323 7.033202,5.5669 10.624419,8.0887 2.149074,1.5093 3.031775,2.1351 4.03103,3.529 1.317715,1.7954 1.615113,6.7569 1.624911,8.8381 0,4.9968 0,9.9936 0,14.9905 -0.01494,1.0559 0.943218,2.0272 1.999891,2.0272 1.056673,0 2.014833,-0.9713 1.999891,-2.0272 l 0,-14.9905 c -0.0076,-1.9826 0.377606,-7.4301 -2.37487,-11.1804 -1.342935,-1.8733 -2.791744,-2.9373 -4.968479,-4.4659 -4.233535,-3.0694 -7.358266,-5.416 -10.405681,-7.9325 -2.1439,-1.7031 -4.916808,-1.7845 -6.874624,-0.5933 0.193319,-3.97087 0.475903,-8.19683 0.617837,-12.07424 0.07499,-2.67917 -2.205373,-4.36276 -4.742612,-4.60271 -0.33902,-0.0321 -0.6896,-0.0199 -1.031194,0 z m 64.527724,0 c -2.533434,0.23959 -4.810762,1.9185 -4.742934,4.59066 0.147327,3.8838 0.40588,8.10832 0.618159,12.08629 -1.957816,-1.1912 -4.730724,-1.1098 -6.874624,0.5933 -3.357836,2.7866 -6.94176,5.4999 -10.405682,7.9325 -2.176735,1.5286 -3.625543,2.5926 -4.968478,4.4659 -2.752477,3.7503 -2.367261,9.1978 -2.37487,11.1804 l 0,14.9905 c -0.01494,1.0559 0.943217,2.0272 1.99989,2.0272 1.056674,0 2.014833,-0.9713 1.999891,-2.0272 0,-4.9969 0,-9.9937 0,-14.9905 0.0098,-2.0812 0.307196,-7.0427 1.624911,-8.8381 0.999256,-1.3939 1.881957,-2.0197 4.03103,-3.529 4.298314,-3.1173 7.517301,-5.5251 10.624419,-8.0887 1.08167,-0.8434 1.657867,-0.7282 2.312374,-0.3123 0.663783,0.4218 1.331057,1.4724 1.406173,2.8732 0.0072,0.2463 0.06046,0.4912 0.156242,0.7183 l -7.499591,6.6833 c -0.782344,0.7017 -0.852506,2.0532 -0.147023,2.8321 0.705483,0.7788 2.05811,0.8431 2.834377,0.1347 l 8.999508,-7.9949 c 0.440701,-0.3979 0.688762,-1 0.656214,-1.5927 -0.329156,-6.3585 -0.680585,-12.7296 -0.999946,-19.08165 -0.05562,-0.39297 2.523179,-1.72824 2.999837,0.49968 0.709108,7.16187 1.343791,14.46087 1.99989,21.67377 -8.2e-5,0.01 1.63e-4,0.021 0,0.031 -0.02977,1.8891 -1.380061,3.4378 -2.37487,4.5284 -0.02645,0.029 -0.06787,0.066 -0.09374,0.094 -4.207979,4.005 -10.209799,8.0168 -14.124228,13.1479 -0.3046,0.3957 -0.452797,0.9084 -0.406228,1.4054 l 0.999946,9.9936 c 0.1079,1.0454 1.156597,1.8988 2.202682,1.7926 1.046086,-0.1062 1.901685,-1.1529 1.797099,-2.1985 l -0.9062,-9.1192 c 3.379078,-4.1401 8.876317,-7.994 13.280524,-12.211 0.03227,-0.03 0.06355,-0.062 0.09375,-0.094 0.877018,-0.9598 3.500791,-3.5217 3.531057,-7.3391 0.0029,-0.062 0.0029,-0.125 0,-0.1874 l -1.999891,-21.98602 c -0.04294,-0.38829 -0.128057,-0.58084 -0.181899,-0.82158 -0.811388,-2.92389 -3.547063,-4.10132 -6.067759,-3.86295 z m -31.748265,3.12302 c 0.688345,1.06073 1.292625,2.22337 1.624911,3.6227 0.162492,0.71808 0.753749,1.32157 1.46867,1.49904 1.40415,0.33305 2.592814,0.93321 3.65605,1.62397 -1.062428,0.68955 -2.253658,1.26011 -3.65605,1.59274 -0.714921,0.17748 -1.306178,0.78096 -1.46867,1.49905 -0.332824,1.40153 -0.934975,2.59213 -1.624911,3.65393 -0.689937,-1.0618 -1.292088,-2.2524 -1.624911,-3.65393 -0.162493,-0.71809 -0.753749,-1.32157 -1.46867,-1.49905 -1.402396,-0.33263 -2.593623,-0.9032 -3.65605,-1.59274 1.063235,-0.69076 2.251898,-1.29092 3.65605,-1.62397 0.714921,-0.17747 1.306177,-0.78096 1.46867,-1.49904 0.332285,-1.39933 0.936565,-2.56197 1.624911,-3.6227 z" fill="#000000" fill-opacity="1" stroke="none" marker="none" visibility="visible" display="inline" overflow="visible"/></g><text x="0" y="115" fill="#000000" font-size="5px" font-weight="bold" font-family="'Helvetica Neue', Helvetica, Arial-Unicode, Arial, Sans-serif">Created by hafiudin</text><text x="0" y="120" fill="#000000" font-size="5px" font-weight="bold" font-family="'Helvetica Neue', Helvetica, Arial-Unicode, Arial, Sans-serif">from the Noun Project</text></svg>