<svg height="100" viewBox="0 0 100 100" width="100" xmlns="http://www.w3.org/2000/svg"><path d="m32.717508 970.40919c-.407585.0588-.795479.24708-1.09369.53092-1.415219 1.32604-2.359572 3.10908-2.999836 5.05928-1.960593.63919-3.761538 1.60948-5.093472 3.02933-.677153.73048-.677153 1.98654 0 2.71702 1.331164 1.41904 3.134281 2.39003 5.093472 3.02933.639661 1.95805 1.579975 3.7289 2.999836 5.05928.733977.69434 2.015873.69434 2.74985 0 1.419861-1.33038 2.360175-3.10123 2.999836-5.05928 1.959189-.6393 3.762306-1.6103 5.093471-3.02933.677153-.73048.677153-1.98654 0-2.71702-1.331935-1.41984-3.13288-2.39014-5.093471-3.02933-.640264-1.9502-1.584618-3.73324-2.999836-5.05928-.434659-.41305-1.062201-.61422-1.65616-.53092zm33.998142 0c-.407586.0588-.79548.24708-1.09369.53092-1.415219 1.32604-2.359572 3.10908-2.999836 5.05928-1.960591.63919-3.761537 1.60949-5.093472 3.02933-.677153.73048-.677153 1.98654 0 2.71702 1.331165 1.41903 3.134283 2.39003 5.093472 3.02933.639661 1.95805 1.579974 3.7289 2.999836 5.05928.733977.69434 2.015873.69434 2.749849 0 1.419862-1.33038 2.360175-3.10123 2.999837-5.05928 1.95919-.6393 3.762308-1.61029 5.093471-3.02933.677153-.73048.677153-1.98654 0-2.71702-1.331933-1.41985-3.132879-2.39014-5.093471-3.02933-.640264-1.9502-1.584618-3.73324-2.999837-5.05928-.434658-.41305-1.0622-.61422-1.656159-.53092zm-33.716907 5.21544c.387766.69958.699593 1.50342.9062 2.37349.162492.71809.753749 1.32157 1.46867 1.49905.870576.20649 1.674889.51813 2.37487.90567-.699979.38755-1.504291.69919-2.37487.90568-.707195.17255-1.29602.76103-1.46867 1.46782-.206608.87007-.518434 1.67391-.9062 2.37349-.387766-.69958-.699592-1.50342-.906201-2.37349-.172649-.70679-.761474-1.29527-1.468669-1.46782-.870582-.20649-1.674891-.51813-2.374871-.90568.699981-.38754 1.504292-.69918 2.374871-.90567.714921-.17748 1.306177-.78096 1.468669-1.49905.206608-.87007.518435-1.67391.906201-2.37349zm33.998142 0c.387765.69958.699592 1.50342.9062 2.37349.162492.71809.753749 1.32157 1.46867 1.49905.870578.20649 1.674889.51813 2.37487.90567-.69998.38755-1.504289.69919-2.37487.90568-.707196.17255-1.29602.76103-1.46867 1.46782-.206609.87007-.518435 1.67391-.9062 2.37349-.387766-.69958-.699592-1.50342-.906201-2.37349-.172649-.70679-.761474-1.29527-1.46867-1.46782-.870579-.20649-1.67489-.51813-2.37487-.90568.699982-.38754 1.504294-.69918 2.37487-.90567.714921-.17748 1.306178-.78096 1.46867-1.49905.206608-.87007.518435-1.67391.906201-2.37349zm-17.280306 8.77567c-.407586.0588-.795479.24708-1.09369.53092-1.756844 1.64614-2.949772 3.87539-3.718547 6.33972-2.475554.76737-4.722261 1.98614-6.374651 3.74762-.677153.73047-.677153 1.98654 0 2.71702 1.651735 1.7607 3.900262 2.98012 6.374651 3.74762.768774 2.4642 1.961696 4.6936 3.718547 6.3397.733977.6944 2.015873.6944 2.74985 0 1.756851-1.6461 2.949772-3.8755 3.718546-6.3397 2.474386-.7675 4.722913-1.98692 6.374652-3.74762.677153-.73048.677153-1.98655 0-2.71702-1.652394-1.76148-3.899101-2.98025-6.374652-3.74762-.768775-2.46433-1.961702-4.69358-3.718546-6.33972-.434659-.41305-1.062201-.61422-1.65616-.53092zm-32.498224 2.12365c-2.198032.12842-4.335104 1.33473-5.036515 3.86254-.07862.2974-.124121.44146-.181949.82199l-1.9998911 21.98602c-.00293.062-.00293.125 0 .1874.030268 3.8174 2.6540391 6.3793 3.5310571 7.3391.0302.032.06148.063.09375.094 4.404206 4.217 9.901446 8.0709 13.280524 12.211l-.906201 9.1189c-.104586 1.0456.751013 2.0923 1.797099 2.1985 1.046085.1062 2.094783-.7472 2.202683-1.7926l.999945-9.9936c.04657-.497-.101627-1.0097-.406228-1.4054-3.914429-5.1311-9.916249-9.1429-14.124228-13.1479-.03122-.031-.06439-.064-.09374-.094-.994808-1.0906-2.345097-2.6393-2.37487-4.5284-.000163-.01.000082-.021 0-.031.689882-7.2091 1.259573-14.51473 1.999891-21.67377.368499-2.42876 3.022627-.7023 2.999836-.49968-.324345 6.35241-.665088 12.72305-.999945 19.08165-.03255.5927.215513 1.1948.656214 1.5927l8.999508 7.9949c.776266.7084 2.128894.6441 2.834377-.1347.705482-.7789.63532-2.1304-.147024-2.8321l-7.49959-6.6833c.09578-.2271.149057-.472.156241-.7183.07512-1.4008.742391-2.4514 1.406174-2.8732.654507-.4159 1.230703-.5311 2.312373.3123 3.417831 2.8323 7.033202 5.5669 10.624419 8.0887 2.149074 1.5093 3.031775 2.1351 4.03103 3.529 1.317715 1.7954 1.615113 6.7569 1.624911 8.8381v14.9905c-.01494 1.0559.943218 2.0272 1.999891 2.0272s2.014833-.9713 1.999891-2.0272v-14.9905c-.0076-1.9826.377606-7.4301-2.37487-11.1804-1.342935-1.8733-2.791744-2.9373-4.968479-4.4659-4.233535-3.0694-7.358266-5.416-10.405681-7.9325-2.1439-1.7031-4.916808-1.7845-6.874624-.5933.193319-3.97087.475903-8.19683.617837-12.07424.07499-2.67917-2.205373-4.36276-4.742612-4.60271-.33902-.0321-.6896-.0199-1.031194 0zm64.527724 0c-2.533434.23959-4.810762 1.9185-4.742934 4.59066.147327 3.8838.40588 8.10832.618159 12.08629-1.957816-1.1912-4.730724-1.1098-6.874624.5933-3.357836 2.7866-6.94176 5.4999-10.405682 7.9325-2.176735 1.5286-3.625543 2.5926-4.968478 4.4659-2.752477 3.7503-2.367261 9.1978-2.37487 11.1804v14.9905c-.01494 1.0559.943217 2.0272 1.99989 2.0272 1.056674 0 2.014833-.9713 1.999891-2.0272 0-4.9969 0-9.9937 0-14.9905.0098-2.0812.307196-7.0427 1.624911-8.8381.999256-1.3939 1.881957-2.0197 4.03103-3.529 4.298314-3.1173 7.517301-5.5251 10.624419-8.0887 1.08167-.8434 1.657867-.7282 2.312374-.3123.663783.4218 1.331057 1.4724 1.406173 2.8732.0072.2463.06046.4912.156242.7183l-7.499591 6.6833c-.782344.7017-.852506 2.0532-.147023 2.8321.705483.7788 2.05811.8431 2.834377.1347l8.999508-7.9949c.440701-.3979.688762-1 .656214-1.5927-.329156-6.3585-.680585-12.7296-.999946-19.08165-.05562-.39297 2.523179-1.72824 2.999837.49968.709108 7.16187 1.343791 14.46087 1.99989 21.67377-.000082.01.000163.021 0 .031-.02977 1.8891-1.380061 3.4378-2.37487 4.5284-.02645.029-.06787.066-.09374.094-4.207979 4.005-10.209799 8.0168-14.124228 13.1479-.3046.3957-.452797.9084-.406228 1.4054l.999946 9.9936c.1079 1.0454 1.156597 1.8988 2.202682 1.7926 1.046086-.1062 1.901685-1.1529 1.797099-2.1985l-.9062-9.1192c3.379078-4.1401 8.876317-7.994 13.280524-12.211.03227-.03.06355-.062.09375-.094.877018-.9598 3.500791-3.5217 3.531057-7.3391.0029-.062.0029-.125 0-.1874l-1.999891-21.98602c-.04294-.38829-.128057-.58084-.181899-.82158-.811388-2.92389-3.547063-4.10132-6.067759-3.86295zm-31.748265 3.12302c.688345 1.06073 1.292625 2.22337 1.624911 3.6227.162492.71808.753749 1.32157 1.46867 1.49904 1.40415.33305 2.592814.93321 3.65605 1.62397-1.062428.68955-2.253658 1.26011-3.65605 1.59274-.714921.17748-1.306178.78096-1.46867 1.49905-.332824 1.40153-.934975 2.59213-1.624911 3.65393-.689937-1.0618-1.292088-2.2524-1.624911-3.65393-.162493-.71809-.753749-1.32157-1.46867-1.49905-1.402396-.33263-2.593623-.9032-3.65605-1.59274 1.063235-.69076 2.251898-1.29092 3.65605-1.62397.714921-.17747 1.306177-.78096 1.46867-1.49904.332285-1.39933.936565-2.56197 1.624911-3.6227z" transform="translate(0 -952.36218)"/></svg>