<svg height='100px' width='100px'  fill="#000000" xmlns="http://www.w3.org/2000/svg" data-name="Layer 1" viewBox="0 0 24 24" x="0px" y="0px"><title>rocket, space, space ship, start, start up, startup, mission, goal</title><path d="M15.40851,2.29962A32.16476,32.16476,0,0,0,6.93274,9.37671a1.32458,1.32458,0,0,1-1.17078.4577A4.66507,4.66507,0,0,0,1.80621,11.187,5.462,5.462,0,0,0,.00275,15.26929a.4196.4196,0,0,0,.66913.31366,3.88509,3.88509,0,0,1,1.58337-.63483A2.18871,2.18871,0,0,1,4.4967,16.30524a3.55433,3.55433,0,0,0,.239.43536,8.35577,8.35577,0,0,0,2.52362,2.52368,3.55949,3.55949,0,0,0,.43542.239,2.18874,2.18874,0,0,1,1.35712,2.24145,3.88564,3.88564,0,0,1-.63483,1.58331.41962.41962,0,0,0,.31366.66919,5.462,5.462,0,0,0,4.08234-1.80346A4.66507,4.66507,0,0,0,14.16559,18.238a1.32463,1.32463,0,0,1,.45764-1.17078,32.16247,32.16247,0,0,0,7.07709-8.47577C26.45258.4093,23.5907-2.45258,15.40851,2.29962ZM13.72327,13.42151a2.2237,2.2237,0,1,1,0-3.14478A2.22369,2.22369,0,0,1,13.72327,13.42151Z"></path><path d="M6.42938,20.27924a2.20554,2.20554,0,0,1-2.70862-2.70862,2.20172,2.20172,0,0,0-1.00433.56811,5.85583,5.85583,0,0,0-1.89191,3.877,1.09746,1.09746,0,0,0,1.15979,1.15979,5.85583,5.85583,0,0,0,3.877-1.89191A2.20172,2.20172,0,0,0,6.42938,20.27924Z"></path></svg>