<svg xmlns="http://www.w3.org/2000/svg" data-name="Layer 1" viewBox="0 0 64 80" x="0px" y="0px"><title>organic-hand-ecology- auxiliary- environmental</title><path d="M61.606,42.205a1,1,0,0,0-.87-.169L42.083,47.143H35.56l-8.388-2.529a1,1,0,0,0-.578,0L18.2,47.143h-3.97v-.286a1,1,0,0,0-1-1H3a1,1,0,0,0-1,1V59.714a1,1,0,0,0,1,1H13.235a1,1,0,0,0,1-1v-.139l17.629,2.416A1.035,1.035,0,0,0,32,62a1,1,0,0,0,.405-.086l29-12.857A1,1,0,0,0,62,48.143V43A1,1,0,0,0,61.606,42.205ZM12.235,58.714H4V47.857h8.235V58.714ZM60,47.493,31.854,59.971,14.235,57.556V49.143h4.118a1.016,1.016,0,0,0,.289-.042l8.241-2.485,8.24,2.485a1.01,1.01,0,0,0,.289.042h7.529v1.918L23.408,52.288l.125,2L44,53a1,1,0,0,0,.937-1V48.434L60,44.311Z"/><path d="M15.391,33.887l3.8,3.819c.016.016.039.022.056.037A4.356,4.356,0,0,0,19,39.1c0,.036.009.063.01.1,0,.061-.011.126-.009.18h.028a2.122,2.122,0,0,0,.618,1.349L21,39.312h0a.256.256,0,0,1-.025.127c.243-.4,2.5-1.283,6.572-1.216A17.194,17.194,0,0,0,39.482,43h.051c.112,0,.221-.014.332-.016V43c.077,0,.149-.02.226-.025a18.568,18.568,0,0,0,12.615-5.486,1,1,0,0,0,0-1.412A17.2,17.2,0,0,0,40.448,31H40.4c-.181,0-.359.022-.54.027-.166-.007-.331-.014-.5-.011v.036a18.547,18.547,0,0,0-11.811,5.17,21,21,0,0,0-5.62.591,18.767,18.767,0,0,1,2.907-3.487c.272.011.544.027.813.027a16.953,16.953,0,0,0,12.12-4.9c.094-.094.173-.2.265-.3l.013.012c.061-.063.1-.138.159-.2a18.516,18.516,0,0,0,4.755-13.985,1,1,0,0,0-.932-.937A17.078,17.078,0,0,0,28.634,17.9c-.141.14-.261.3-.4.44-.136.123-.27.247-.4.381l.03.029A18.5,18.5,0,0,0,23.434,31.9c-.153.148-.306.3-.459.455a8.184,8.184,0,0,0-2.366-6.238l-3.8-3.819a1,1,0,0,0-1.418,0A8.231,8.231,0,0,0,15.391,33.887ZM32.5,35.047a1.425,1.425,0,0,1,.732.4,3.109,3.109,0,0,1,.765,2.243l2,.047a5.071,5.071,0,0,0-1.342-3.695,16.339,16.339,0,0,1,5.064-1.014,3.971,3.971,0,0,1,2.584.856.745.745,0,0,1,.263.526l2,.046a2.49,2.49,0,0,0-.17-.942,15.049,15.049,0,0,1,6.148,3.26,16.75,16.75,0,0,1-5.894,3.387,4.41,4.41,0,0,0,.536-1.969l-2-.048a3.2,3.2,0,0,1-3.172,2.831c-.161,0-.319.022-.48.022h-.044c-.156,0-.309-.017-.465-.022A6.59,6.59,0,0,0,40.98,36.4l-2-.047c-.052,2.227-1.571,4.066-3.384,4.1V40.5a15.044,15.044,0,0,1-6.208-3.273A17.026,17.026,0,0,1,32.5,35.047ZM41,15a17.306,17.306,0,0,1-1.626,7.735,5.539,5.539,0,0,0-1.327-2.4L36.6,21.719a3.689,3.689,0,0,1,.133,4.894c-.129.139-.245.287-.38.421-.2.2-.421.381-.633.569a7.958,7.958,0,0,0-2.316-5.656l-1.443,1.385c1.875,1.955,2.348,4.766,1.031,6.139l.035.033A15.362,15.362,0,0,1,25.4,31.351a18.213,18.213,0,0,1,.47-4.384,1.315,1.315,0,0,1,.741-.217h0a4.191,4.191,0,0,1,2.772,1.418l1.443-1.384a6.133,6.133,0,0,0-4.215-2.034h0c-.03,0-.058.007-.089.007a15.413,15.413,0,0,1,3.043-4.91c1.206-1.079,2.787-1.481,3.427-.815l1.444-1.384a3.02,3.02,0,0,0-1.151-.742A15.591,15.591,0,0,1,41,15ZM16.157,24.475l3.034,3.049a6.226,6.226,0,0,1,1.157,7.142c-1.932-2.364-2.31-4.559-1.639-5.233l-1.418-1.412c-1,1.009-1.132,2.621-.518,4.413A6.229,6.229,0,0,1,16.157,24.475Z"/><path d="M6.213,21.68l-1.85-.759a31.485,31.485,0,0,0-1.311,3.914l1.933.51A29.743,29.743,0,0,1,6.213,21.68Z"/><path d="M15.518,9.554l-1.2-1.6a30.567,30.567,0,0,0-3.12,2.709L12.6,12.085A28.621,28.621,0,0,1,15.518,9.554Z"/><path d="M57.445,16.573a31.2,31.2,0,0,0-2.367-3.38L53.52,14.447a29.305,29.305,0,0,1,2.214,3.162Z"/><path d="M10.054,14.988,8.466,13.772a31.1,31.1,0,0,0-2.288,3.439l1.734,1A29.284,29.284,0,0,1,10.054,14.988Z"/><path d="M4.246,29.139l-1.984-.254A32.515,32.515,0,0,0,2,33H4A30.559,30.559,0,0,1,4.246,29.139Z"/><path d="M59.992,32.3l2-.045a32.206,32.206,0,0,0-.357-4.109l-1.977.3A30.03,30.03,0,0,1,59.992,32.3Z"/><path d="M37.8,2.579a29.368,29.368,0,0,0-4.1-.531l-.115,2a27.3,27.3,0,0,1,3.822.494Z"/><path d="M29.729,4.094,29.563,2.1a29.053,29.053,0,0,0-4.088.635l.447,1.949A27.148,27.148,0,0,1,29.729,4.094Z"/><path d="M45.58,5.351a29.367,29.367,0,0,0-3.79-1.663l-.672,1.884a27.316,27.316,0,0,1,3.53,1.549Z"/><path d="M52.28,10.156A30.583,30.583,0,0,0,49.1,7.523L47.931,9.148A28.3,28.3,0,0,1,50.9,11.607Z"/><path d="M22.237,5.812l-.72-1.867A29.678,29.678,0,0,0,17.775,5.7l.973,1.747A27.589,27.589,0,0,1,22.237,5.812Z"/><path d="M60.753,24.119a32,32,0,0,0-1.4-3.881l-1.832.8a29.546,29.546,0,0,1,1.314,3.635Z"/><path d="M55.05,23.013c-3.365-.546-3.517-.7-4.063-4.063a1,1,0,0,0-1.974,0c-.546,3.365-.7,3.517-4.063,4.063a1,1,0,0,0,0,1.974c3.365.546,3.517.7,4.063,4.063a1,1,0,0,0,1.974,0c.546-3.365.7-3.517,4.063-4.063a1,1,0,0,0,0-1.974ZM50,25.291A3.389,3.389,0,0,0,48.71,24,3.389,3.389,0,0,0,50,22.709,3.389,3.389,0,0,0,51.29,24,3.389,3.389,0,0,0,50,25.291Z"/><text x="0" y="79" fill="#000000" font-size="5px" font-weight="bold" font-family="'Helvetica Neue', Helvetica, Arial-Unicode, Arial, Sans-serif">Created by Sumit Saengthong</text><text x="0" y="84" fill="#000000" font-size="5px" font-weight="bold" font-family="'Helvetica Neue', Helvetica, Arial-Unicode, Arial, Sans-serif">from the Noun Project</text></svg>