<svg xmlns="http://www.w3.org/2000/svg" xmlns:xlink="http://www.w3.org/1999/xlink" version="1.1" x="0px" y="0px" viewBox="0 0 100 125" enable-background="new 0 0 100 100" xml:space="preserve"><path d="M90.309,73.125c0-2.182-1.024-4.126-2.613-5.388L97.936,50L84.007,25.874H57.204L43.852,2.748H15.994L2.063,26.874  L12.21,44.449C10.497,45.701,9.376,47.72,9.376,50s1.12,4.299,2.834,5.552L2.063,73.125l13.93,24.127h27.859l13.349-23.127h19.43  c0.487,3.319,3.346,5.879,6.799,5.879c0.896,0,1.748-0.177,2.533-0.489l9.951,17.237l1.732-1l-9.952-17.239  C89.284,77.251,90.309,75.307,90.309,73.125z M95.627,50l-9.663,16.735c-0.785-0.313-1.638-0.489-2.533-0.489  c-3.453,0-6.312,2.56-6.799,5.879H57.304l-9.665-16.738c1.589-1.261,2.613-3.205,2.613-5.386c0-2.182-1.024-4.126-2.614-5.387  l9.666-16.739h25.549L95.627,50z M48.252,50c0,2.69-2.188,4.878-4.878,4.878c-2.69,0-4.879-2.188-4.879-4.878  c0-2.69,2.189-4.879,4.879-4.879C46.064,45.122,48.252,47.31,48.252,50z M4.373,26.874L17.148,4.748h25.549l12.775,22.126  l-9.647,16.707c-0.763-0.292-1.587-0.459-2.452-0.459c-3.453,0-6.311,2.559-6.798,5.878H23.053  c-0.487-3.319-3.345-5.878-6.797-5.878c-0.798,0-1.561,0.144-2.274,0.395L4.373,26.874z M11.376,50c0-2.69,2.188-4.878,4.879-4.878  c2.69,0,4.878,2.188,4.878,4.878c0,2.69-2.188,4.879-4.878,4.879C13.565,54.879,11.376,52.69,11.376,50z M42.698,95.252h-25.55  L4.373,73.125l9.608-16.641c0.713,0.251,1.476,0.395,2.274,0.395c3.453,0,6.311-2.56,6.797-5.879h13.523  c0.487,3.319,3.345,5.879,6.798,5.879c0.865,0,1.689-0.167,2.452-0.46l9.645,16.706L42.698,95.252z M78.551,73.125  c0-2.69,2.189-4.879,4.88-4.879c2.689,0,4.878,2.188,4.878,4.879s-2.188,4.879-4.878,4.879  C80.74,78.004,78.551,75.815,78.551,73.125z"/><text x="0" y="115" fill="#000000" font-size="5px" font-weight="bold" font-family="'Helvetica Neue', Helvetica, Arial-Unicode, Arial, Sans-serif">Created by Srinivas Agra</text><text x="0" y="120" fill="#000000" font-size="5px" font-weight="bold" font-family="'Helvetica Neue', Helvetica, Arial-Unicode, Arial, Sans-serif">from the Noun Project</text></svg>