<svg enable-background="new 0 0 512 512" height="100" viewBox="0 0 512 512" width="100" xmlns="http://www.w3.org/2000/svg"><path d="m377.4 216.2 84.6-32.3c4.1 5.5 10.6 8.9 17.8 8.9 2.7 0 5.4-.5 8-1.5 5.5-2.2 9.9-6.3 12.3-11.8 2.4-5.4 2.5-11.4.4-16.9-3.3-8.5-11.6-14.2-20.7-14.2-2.7 0-5.4.5-8 1.5-9.4 3.7-15 13.1-14.1 22.8l-84.6 32.3c-5.6-12.6-13.2-24.2-22.4-34.3l23.2-23.2c3.3 1.8 7 2.8 10.9 2.8 5.9 0 11.5-2.3 15.7-6.5s6.5-9.8 6.5-15.7-2.3-11.5-6.5-15.7-9.8-6.5-15.7-6.5-11.5 2.3-15.7 6.5c-7.2 7.2-8.4 18.1-3.6 26.5l-23.2 23.2c-8.6-7.8-18.3-14.5-28.7-19.8l37-82.7c1 .1 2.1.2 3.1.2 8.8 0 16.8-5.2 20.3-13.2 2.4-5.4 2.5-11.4.4-17-2.1-5.5-6.3-9.9-11.7-12.3-2.9-1.3-5.9-1.9-9-1.9-8.8 0-16.7 5.2-20.3 13.2-4.1 9.2-1.3 19.8 6.2 26.1l-37.1 82.8c-12.5-4.9-26-7.8-40-8.5v-32.6c9.3-2.6 16.2-11.2 16.2-21.3 0-12.2-9.9-22.2-22.2-22.2-12.2 0-22.2 10-22.2 22.2 0 10.1 6.9 18.7 16.2 21.3v32.7c-11.9.6-23.4 2.8-34.3 6.4l-32.3-84.7c7.8-5.8 11.1-16.3 7.4-25.8-3.3-8.6-11.4-14.2-20.7-14.2-2.8 0-5.5.5-8 1.5-5.5 2.1-9.9 6.3-12.3 11.7s-2.6 11.5-.4 17c3.4 8.6 11.5 14.2 20.7 14.2.7 0 1.4 0 2.1-.1l32.3 84.7c-12.6 5.6-24.2 13.2-34.3 22.4l-23.1-23.2c1.8-3.3 2.8-7 2.8-10.9 0-5.9-2.3-11.5-6.5-15.7s-9.8-6.5-15.7-6.5-11.5 2.3-15.7 6.5-6.5 9.8-6.5 15.7 2.3 11.5 6.5 15.7 9.7 6.5 15.7 6.5c3.9 0 7.6-1 10.9-2.8l23.2 23.2c-7.8 8.6-14.5 18.3-19.8 28.8l-82.7-37.1c1.4-9.6-3.7-19.3-13-23.4-2.9-1.3-5.9-1.9-9-1.9-8.8 0-16.7 5.2-20.3 13.2-5 11.2.1 24.3 11.3 29.3 2.9 1.3 5.9 1.9 9 1.9 6.7 0 12.9-3.1 17.1-8.1l82.7 37.1c-4.9 12.5-7.8 26-8.5 40.1h-32.7c-2.6-9.3-11.2-16.2-21.3-16.2-12.2 0-22.2 10-22.2 22.2s9.9 22.1 22.2 22.1c10.1 0 18.7-6.8 21.3-16.1h32.7c.6 11.9 2.8 23.4 6.4 34.3l-84.6 32.3c-4.1-5.5-10.6-8.9-17.7-8.9-2.8 0-5.5.5-8 1.5-5.5 2.1-9.9 6.3-12.3 11.7s-2.5 11.5-.4 17c3.3 8.5 11.6 14.2 20.7 14.2 2.7 0 5.4-.5 8-1.5 9.4-3.7 15-13.2 14.1-22.8l84.7-32.3c5.6 12.6 13.2 24.2 22.4 34.3l-23.2 23.2c-3.3-1.8-7-2.8-10.9-2.8-5.9 0-11.5 2.3-15.7 6.5-8.6 8.7-8.6 22.7 0 31.4 4.2 4.2 9.7 6.5 15.7 6.5 5.9 0 11.5-2.3 15.7-6.5 7.1-7.2 8.3-18.1 3.6-26.6l23.2-23.2c8.6 7.8 18.2 14.5 28.7 19.7l-37 82.8c-1.1-.2-2.1-.2-3.2-.2-8.7 0-16.7 5.2-20.2 13.2-4.9 11.1.1 24.3 11.3 29.3 2.8 1.2 5.8 1.9 8.9 1.9 8.8 0 16.8-5.2 20.3-13.2 2.4-5.4 2.5-11.4.4-17-1.4-3.6-3.7-6.7-6.5-9.1l37-82.8c12.5 4.9 26 7.8 40 8.5v32.7c-9.3 2.6-16.2 11.2-16.2 21.4 0 12.2 9.9 22.1 22.2 22.1 12.2 0 22.2-9.9 22.2-22.1 0-10.2-6.9-18.7-16.2-21.4v-32.7c11.9-.6 23.4-2.8 34.3-6.4l32.3 84.7c-7.7 5.8-11.1 16.3-7.4 25.8 3.3 8.6 11.5 14.2 20.7 14.2 2.7 0 5.4-.5 8-1.5 11.4-4.4 17.1-17.3 12.7-28.7-3.4-8.6-11.5-14.2-20.7-14.2-.7 0-1.4 0-2.1.1l-32.3-84.9c12.6-5.6 24.2-13.2 34.3-22.4l23.2 23.2c-4.7 8.5-3.5 19.4 3.6 26.6 4.2 4.2 9.8 6.5 15.7 6.5s11.5-2.3 15.7-6.5c8.6-8.7 8.6-22.7 0-31.4-4.2-4.2-9.8-6.5-15.7-6.5-3.9 0-7.6 1-10.9 2.8l-23.1-23.2c7.8-8.6 14.5-18.3 19.8-28.8l82.7 37.1c-1.4 9.6 3.7 19.3 13 23.4 2.9 1.3 5.9 1.9 9 1.9 8.8 0 16.7-5.2 20.3-13.2 4.9-11.2-.1-24.3-11.3-29.3-2.8-1.3-5.8-1.9-8.9-1.9-6.7 0-12.9 3-17.1 8.1l-82.7-37.1c4.9-12.5 7.8-26 8.5-40.1h32.7c2.6 9.3 11.2 16.1 21.3 16.1 12.2 0 22.2-9.9 22.2-22.1s-9.9-22.2-22.2-22.2c-10.1 0-18.7 6.9-21.3 16.2h-32.7c-.8-11.8-3.1-23.3-6.7-34.1zm98.8-55.2c1.2-.5 2.4-.7 3.7-.7 4.2 0 7.9 2.6 9.5 6.6 1 2.5.9 5.3-.2 7.7-1.1 2.5-3.1 4.4-5.6 5.4-1.2.4-2.4.7-3.6.7-4.3 0-8-2.6-9.5-6.5-2.2-5.2.4-11.1 5.7-13.2zm-131.8-127.4c1.6-3.7 5.3-6 9.3-6 1.4 0 2.8.3 4.1.9 2.5 1.1 4.4 3.1 5.4 5.6s.9 5.3-.2 7.8c-1.6 3.7-5.3 6.1-9.4 6.1-1.4 0-2.8-.3-4-.8-5.1-2.5-7.5-8.5-5.2-13.6zm-183.3 3.1c-1-2.5-.9-5.3.2-7.8s3.1-4.4 5.7-5.4c1.2-.5 2.4-.7 3.7-.7 4.2 0 7.9 2.6 9.5 6.5 2 5.2-.6 11.2-5.9 13.2-1.2.5-2.4.7-3.7.7-4.2 0-8-2.6-9.5-6.5zm-123.3 132.7c-1.4 0-2.8-.3-4.1-.9-5.1-2.3-7.4-8.3-5.2-13.5 1.6-3.7 5.3-6.1 9.3-6.1 1.4 0 2.8.3 4.1.9 5.1 2.3 7.5 8.3 5.2 13.4-1.6 3.8-5.3 6.2-9.3 6.2zm-1 182.5c-1.2.5-2.4.7-3.7.7-4.2 0-8-2.6-9.5-6.6-1-2.5-.9-5.3.2-7.8s3.1-4.4 5.6-5.3c1.2-.5 2.4-.7 3.7-.7 4.2 0 7.9 2.6 9.5 6.5 2 5.2-.6 11.1-5.8 13.2zm131.8 127.4c-1.6 3.7-5.3 6.1-9.4 6.1-1.4 0-2.8-.3-4-.8-5.1-2.3-7.5-8.4-5.2-13.5 1.6-3.7 5.3-6.1 9.3-6.1 1.4 0 2.8.3 4.1.9 2.5 1.1 4.4 3.1 5.4 5.6.9 2.6.9 5.4-.2 7.8zm183.2-3c2 5.2-.6 11.1-5.8 13.2-1.2.5-2.4.7-3.7.7-4.3 0-8-2.6-9.5-6.5-2-5.2.6-11.2 5.8-13.2 1.2-.5 2.4-.7 3.7-.7 4.2-.1 8 2.5 9.5 6.5zm123.4-132.8c1.4 0 2.8.3 4.1.9 5.1 2.3 7.5 8.3 5.2 13.5-1.6 3.7-5.3 6-9.3 6-1.4 0-2.8-.3-4.1-.9-5.1-2.3-7.5-8.3-5.2-13.4 1.6-3.7 5.2-6.1 9.3-6.1zm-112.8-41c-.1.2-.2.4-.3.6s-.2.5-.3.7c-12.3 27.3-35 49-62.9 60-.3.1-.5.1-.7.2-.3.1-.5.2-.7.3-12.7 4.8-26.5 7.5-40.9 7.5-16.5 0-32.2-3.5-46.4-9.8-.1 0-.2-.1-.3-.1-.1-.1-.2-.1-.4-.1-27.5-12.3-49.3-35-60.4-63.1-.1-.3-.1-.5-.2-.8-.1-.2-.2-.5-.3-.7-4.8-12.6-7.4-26.2-7.5-40.5 0-.1 0-.3 0-.5s0-.3 0-.5c.1-16.3 3.5-31.8 9.7-45.9.1-.1.1-.3.2-.4.1-.2.2-.4.2-.6 12.3-27.4 35-49.1 63.1-60.2.2-.1.4-.1.6-.2s.5-.2.7-.3c12.5-4.8 26-7.4 40.2-7.5.3 0 .5.1.8.1s.5 0 .8-.1c16.2.1 31.6 3.6 45.6 9.7.1.1.2.1.3.2s.3.1.4.2c27.4 12.3 49.2 35 60.3 63.1.1.2.1.5.2.7s.2.4.3.6c4.8 12.6 7.5 26.2 7.5 40.5v.6.6c-.1 16.4-3.5 31.8-9.6 45.7zm15.1-181.5c1.9-1.9 4.5-3 7.2-3s5.3 1.1 7.2 3 3 4.5 3 7.2-1.1 5.3-3 7.2-4.5 3-7.2 3-5.3-1.1-7.2-3c-4-4-4-10.5 0-14.4zm-131.2-46c0-5.6 4.6-10.2 10.2-10.2s10.2 4.6 10.2 10.2-4.6 10.1-10.2 10.1c-5.6.1-10.2-4.5-10.2-10.1zm-125.3 60.4c-1.9-1.9-3-4.5-3-7.2s1.1-5.3 3-7.2 4.4-3 7.2-3c2.7 0 5.3 1.1 7.2 3s3 4.5 3 7.2-1.1 5.3-3 7.2-4.5 3-7.2 3c-2.7-.1-5.2-1.1-7.2-3zm-45.9 131.2c-5.6 0-10.2-4.6-10.2-10.1 0-5.6 4.6-10.2 10.2-10.2s10.2 4.6 10.2 10.2-4.6 10.1-10.2 10.1zm60.3 125.4c-1.9 1.9-4.5 3-7.2 3s-5.3-1.1-7.2-3c-4-4-4-10.5 0-14.5 1.9-1.9 4.5-3 7.2-3s5.3 1.1 7.2 3c4 4 4 10.5 0 14.5zm131.2 45.9c0 5.6-4.6 10.1-10.2 10.1s-10.2-4.6-10.2-10.1c0-5.6 4.6-10.2 10.2-10.2 5.7 0 10.2 4.6 10.2 10.2zm125.3-60.4c4 4 4 10.5 0 14.5-1.9 1.9-4.5 3-7.2 3s-5.3-1.1-7.2-2.9c-4-4-4-10.5 0-14.5 1.9-1.9 4.5-3 7.2-3s5.3 1 7.2 2.9zm45.9-131.2c5.6 0 10.2 4.6 10.2 10.2s-4.6 10.1-10.2 10.1-10.2-4.6-10.2-10.1c.1-5.6 4.6-10.2 10.2-10.2z"/><path d="m259.9 165.8c-14.2 0-25.8 11.6-25.8 25.9 0 14.2 11.6 25.8 25.8 25.8 14.3 0 25.9-11.6 25.9-25.8-.1-14.2-11.7-25.9-25.9-25.9zm0 39.8c-7.6 0-13.8-6.2-13.8-13.8 0-7.7 6.2-13.9 13.8-13.9s13.9 6.2 13.9 13.9c-.1 7.5-6.3 13.8-13.9 13.8z"/><path d="m188.4 222.7c-14.2 0-25.8 11.6-25.8 25.8s11.6 25.8 25.8 25.8c14.3 0 25.8-11.6 25.8-25.8s-11.6-25.8-25.8-25.8zm0 39.6c-7.6 0-13.8-6.2-13.8-13.8s6.2-13.8 13.8-13.8 13.8 6.2 13.8 13.8-6.2 13.8-13.8 13.8z"/><path d="m306.7 246.4c-14.3 0-25.8 11.6-25.8 25.8 0 14.3 11.6 25.9 25.8 25.9s25.8-11.6 25.8-25.9c.1-14.2-11.5-25.8-25.8-25.8zm0 39.7c-7.6 0-13.8-6.2-13.8-13.9 0-7.6 6.2-13.8 13.8-13.8s13.8 6.2 13.8 13.8c.1 7.7-6.1 13.9-13.8 13.9z"/><path d="m238.6 299.7c-14.2 0-25.8 11.6-25.8 25.9 0 14.2 11.6 25.8 25.8 25.8 14.3 0 25.8-11.6 25.8-25.8.1-14.2-11.5-25.9-25.8-25.9zm0 39.7c-7.6 0-13.8-6.2-13.8-13.8 0-7.7 6.2-13.9 13.8-13.9s13.8 6.2 13.8 13.9c.1 7.6-6.2 13.8-13.8 13.8z"/><path d="m251.4 247.8c-8.5 0-15.5 7-15.5 15.5s7 15.5 15.5 15.5 15.5-7 15.5-15.5-7-15.5-15.5-15.5zm0 19c-1.9 0-3.5-1.6-3.5-3.5s1.6-3.5 3.5-3.5 3.5 1.6 3.5 3.5-1.6 3.5-3.5 3.5z"/></svg>