<svg height="100" viewBox="0 0 64 64" width="100" xmlns="http://www.w3.org/2000/svg"><path d="m61.606 42.205a1 1 0 0 0 -.87-.169l-18.653 5.107h-6.523l-8.388-2.529a1 1 0 0 0 -.578 0l-8.394 2.529h-3.97v-.286a1 1 0 0 0 -1-1h-10.23a1 1 0 0 0 -1 1v12.857a1 1 0 0 0 1 1h10.235a1 1 0 0 0 1-1v-.139l17.629 2.416a1.035 1.035 0 0 0 .136.009 1 1 0 0 0 .405-.086l29-12.857a1 1 0 0 0 .595-.914v-5.143a1 1 0 0 0 -.394-.795zm-49.371 16.509h-8.235v-10.857h8.235zm47.765-11.221-28.146 12.478-17.619-2.415v-8.413h4.118a1.016 1.016 0 0 0 .289-.042l8.241-2.485 8.24 2.485a1.01 1.01 0 0 0 .289.042h7.529v1.918l-19.533 1.227.125 2 20.467-1.288a1 1 0 0 0 .937-1v-3.566l15.063-4.123z"/><path d="m15.391 33.887 3.8 3.819c.016.016.039.022.056.037a4.356 4.356 0 0 0 -.247 1.357c0 .036.009.063.01.1 0 .061-.011.126-.009.18h.028a2.122 2.122 0 0 0 .618 1.349l1.353-1.417a.256.256 0 0 1 -.025.127c.243-.4 2.5-1.283 6.572-1.216a17.194 17.194 0 0 0 11.935 4.777h.051c.112 0 .221-.014.332-.016v.016c.077 0 .149-.02.226-.025a18.568 18.568 0 0 0 12.615-5.486 1 1 0 0 0 0-1.412 17.2 17.2 0 0 0 -12.258-5.077h-.048c-.181 0-.359.022-.54.027-.166-.007-.331-.014-.5-.011v.036a18.547 18.547 0 0 0 -11.811 5.17 21 21 0 0 0 -5.62.591 18.767 18.767 0 0 1 2.907-3.487c.272.011.544.027.813.027a16.953 16.953 0 0 0 12.12-4.9c.094-.094.173-.2.265-.3l.013.012c.061-.063.1-.138.159-.2a18.516 18.516 0 0 0 4.755-13.985 1 1 0 0 0 -.932-.937 17.078 17.078 0 0 0 -13.395 4.857c-.141.14-.261.3-.4.44-.136.123-.27.247-.4.381l.03.029a18.5 18.5 0 0 0 -4.43 13.15c-.153.148-.306.3-.459.455a8.184 8.184 0 0 0 -2.366-6.238l-3.8-3.819a1 1 0 0 0 -1.418 0 8.231 8.231 0 0 0 0 11.589zm17.109 1.16a1.425 1.425 0 0 1 .732.4 3.109 3.109 0 0 1 .765 2.243l2 .047a5.071 5.071 0 0 0 -1.342-3.695 16.339 16.339 0 0 1 5.064-1.014 3.971 3.971 0 0 1 2.584.856.745.745 0 0 1 .263.526l2 .046a2.49 2.49 0 0 0 -.17-.942 15.049 15.049 0 0 1 6.148 3.26 16.75 16.75 0 0 1 -5.894 3.387 4.41 4.41 0 0 0 .536-1.969l-2-.048a3.2 3.2 0 0 1 -3.172 2.831c-.161 0-.319.022-.48.022h-.044c-.156 0-.309-.017-.465-.022a6.59 6.59 0 0 0 1.955-4.575l-2-.047c-.052 2.227-1.571 4.066-3.384 4.1v.047a15.044 15.044 0 0 1 -6.208-3.273 17.026 17.026 0 0 1 3.112-2.18zm8.5-20.047a17.306 17.306 0 0 1 -1.626 7.735 5.539 5.539 0 0 0 -1.327-2.4l-1.447 1.384a3.689 3.689 0 0 1 .133 4.894c-.129.139-.245.287-.38.421-.2.2-.421.381-.633.569a7.958 7.958 0 0 0 -2.316-5.656l-1.443 1.385c1.875 1.955 2.348 4.766 1.031 6.139l.035.033a15.362 15.362 0 0 1 -7.627 1.847 18.213 18.213 0 0 1 .47-4.384 1.315 1.315 0 0 1 .741-.217 4.191 4.191 0 0 1 2.772 1.418l1.443-1.384a6.133 6.133 0 0 0 -4.215-2.034c-.03 0-.058.007-.089.007a15.413 15.413 0 0 1 3.043-4.91c1.206-1.079 2.787-1.481 3.427-.815l1.444-1.384a3.02 3.02 0 0 0 -1.151-.742 15.591 15.591 0 0 1 7.715-1.906zm-24.843 9.475 3.034 3.049a6.226 6.226 0 0 1 1.157 7.142c-1.932-2.364-2.31-4.559-1.639-5.233l-1.418-1.412c-1 1.009-1.132 2.621-.518 4.413a6.229 6.229 0 0 1 -.616-7.959z"/><path d="m6.213 21.68-1.85-.759a31.485 31.485 0 0 0 -1.311 3.914l1.933.51a29.743 29.743 0 0 1 1.228-3.665z"/><path d="m15.518 9.554-1.2-1.6a30.567 30.567 0 0 0 -3.12 2.709l1.402 1.422a28.621 28.621 0 0 1 2.918-2.531z"/><path d="m57.445 16.573a31.2 31.2 0 0 0 -2.367-3.38l-1.558 1.254a29.305 29.305 0 0 1 2.214 3.162z"/><path d="m10.054 14.988-1.588-1.216a31.1 31.1 0 0 0 -2.288 3.439l1.734 1a29.284 29.284 0 0 1 2.142-3.223z"/><path d="m4.246 29.139-1.984-.254a32.515 32.515 0 0 0 -.262 4.115h2a30.559 30.559 0 0 1 .246-3.861z"/><path d="m59.992 32.3 2-.045a32.206 32.206 0 0 0 -.357-4.109l-1.977.3a30.03 30.03 0 0 1 .334 3.854z"/><path d="m37.8 2.579a29.368 29.368 0 0 0 -4.1-.531l-.115 2a27.3 27.3 0 0 1 3.822.494z"/><path d="m29.729 4.094-.166-1.994a29.053 29.053 0 0 0 -4.088.635l.447 1.949a27.148 27.148 0 0 1 3.807-.59z"/><path d="m45.58 5.351a29.367 29.367 0 0 0 -3.79-1.663l-.672 1.884a27.316 27.316 0 0 1 3.53 1.549z"/><path d="m52.28 10.156a30.583 30.583 0 0 0 -3.18-2.633l-1.169 1.625a28.3 28.3 0 0 1 2.969 2.459z"/><path d="m22.237 5.812-.72-1.867a29.678 29.678 0 0 0 -3.742 1.755l.973 1.747a27.589 27.589 0 0 1 3.489-1.635z"/><path d="m60.753 24.119a32 32 0 0 0 -1.4-3.881l-1.832.8a29.546 29.546 0 0 1 1.314 3.635z"/><path d="m55.05 23.013c-3.365-.546-3.517-.7-4.063-4.063a1 1 0 0 0 -1.974 0c-.546 3.365-.7 3.517-4.063 4.063a1 1 0 0 0 0 1.974c3.365.546 3.517.7 4.063 4.063a1 1 0 0 0 1.974 0c.546-3.365.7-3.517 4.063-4.063a1 1 0 0 0 0-1.974zm-5.05 2.278a3.389 3.389 0 0 0 -1.29-1.291 3.389 3.389 0 0 0 1.29-1.291 3.389 3.389 0 0 0 1.29 1.291 3.389 3.389 0 0 0 -1.29 1.291z"/></svg>