<svg height='100px' width='100px'  fill="#000000" xmlns="http://www.w3.org/2000/svg" xmlns:xlink="http://www.w3.org/1999/xlink" version="1.1" x="0px" y="0px" viewBox="0 0 512 512" style="enable-background:new 0 0 512 512;" xml:space="preserve"><g><g><g><g><g><path d="M46,110c-13.233,0-24-10.767-24-24V66c0-13.233,10.767-24,24-24s24,10.767,24,24v20C70,99.233,59.233,110,46,110z        M46,50c-8.822,0-16,7.178-16,16v20c0,8.822,7.178,16,16,16s16-7.178,16-16V66C62,57.178,54.822,50,46,50z"></path></g><g><path d="M86,130c-13.234,0-24-10.766-24-24V46c0-13.234,10.766-24,24-24s24,10.766,24,24v60C110,119.234,99.234,130,86,130z        M86,30c-8.822,0-16,7.178-16,16v60c0,8.822,7.178,16,16,16s16-7.178,16-16V46C102,37.178,94.822,30,86,30z"></path></g></g><g><g><path d="M466,110c-13.233,0-24-10.767-24-24V66c0-13.233,10.767-24,24-24s24,10.767,24,24v20C490,99.233,479.233,110,466,110z        M466,50c-8.822,0-16,7.178-16,16v20c0,8.822,7.178,16,16,16s16-7.178,16-16V66C482,57.178,474.822,50,466,50z"></path></g><g><path d="M426,130c-13.233,0-24-10.766-24-24V46c0-13.234,10.767-24,24-24s24,10.766,24,24v60C450,119.234,439.233,130,426,130z        M426,30c-8.822,0-16,7.178-16,16v60c0,8.822,7.178,16,16,16s16-7.178,16-16V46C442,37.178,434.822,30,426,30z"></path></g></g><g><path d="M406,110H106c-2.209,0-4-1.791-4-4V46c0-2.209,1.791-4,4-4h300c2.209,0,4,1.791,4,4v60C410,108.209,408.209,110,406,110      z M110,102h292V50H110V102z"></path></g></g><g><g><g><path d="M46,470c-13.233,0-24-10.767-24-24v-20c0-13.232,10.767-24,24-24s24,10.768,24,24v20C70,459.233,59.233,470,46,470z        M46,410c-8.822,0-16,7.178-16,16v20c0,8.822,7.178,16,16,16s16-7.178,16-16v-20C62,417.178,54.822,410,46,410z"></path></g><g><path d="M86,490c-13.234,0-24-10.767-24-24v-60c0-13.232,10.766-24,24-24s24,10.768,24,24v60C110,479.233,99.234,490,86,490z        M86,390c-8.822,0-16,7.178-16,16v60c0,8.822,7.178,16,16,16s16-7.178,16-16v-60C102,397.178,94.822,390,86,390z"></path></g></g><g><g><path d="M466,470c-13.233,0-24-10.767-24-24v-20c0-13.232,10.767-24,24-24s24,10.768,24,24v20C490,459.233,479.233,470,466,470       z M466,410c-8.822,0-16,7.178-16,16v20c0,8.822,7.178,16,16,16s16-7.178,16-16v-20C482,417.178,474.822,410,466,410z"></path></g><g><path d="M426,490c-13.233,0-24-10.767-24-24v-60c0-13.232,10.767-24,24-24s24,10.768,24,24v60C450,479.233,439.233,490,426,490       z M426,390c-8.822,0-16,7.178-16,16v60c0,8.822,7.178,16,16,16s16-7.178,16-16v-60C442,397.178,434.822,390,426,390z"></path></g></g><g><path d="M406,470H106c-2.209,0-4-1.791-4-4v-60c0-2.209,1.791-4,4-4h300c2.209,0,4,1.791,4,4v60      C410,468.209,408.209,470,406,470z M110,462h292v-52H110V462z"></path></g></g><g><path d="M386,410H126c-2.209,0-4-1.791-4-4V106c0-2.209,1.791-4,4-4h260c2.209,0,4,1.791,4,4v300     C390,408.209,388.209,410,386,410z M130,402h252V110H130V402z"></path></g><g><path d="M256,180h-70c-2.209,0-4-1.791-4-4s1.791-4,4-4h70c2.209,0,4,1.791,4,4S258.209,180,256,180z"></path></g><g><path d="M296,220h-70c-2.209,0-4-1.791-4-4s1.791-4,4-4h70c2.209,0,4,1.791,4,4S298.209,220,296,220z"></path></g><g><path d="M266,260h-70c-2.209,0-4-1.791-4-4s1.791-4,4-4h70c2.209,0,4,1.791,4,4S268.209,260,266,260z"></path></g><g><path d="M306,300h-70c-2.209,0-4-1.791-4-4s1.791-4,4-4h70c2.209,0,4,1.791,4,4S308.209,300,306,300z"></path></g><g><path d="M286,340h-70c-2.209,0-4-1.791-4-4s1.791-4,4-4h70c2.209,0,4,1.791,4,4S288.209,340,286,340z"></path></g></g></g></svg>