<svg width="41" height="41" viewBox="0 0 41 41" fill="none" xmlns="http://www.w3.org/2000/svg">
<path d="M19.4543 27.1012C19.4543 25.5842 19.0443 24.2722 18.2038 23.2062C16.9328 21.6072 14.4523 21.4022 13.0173 21.7302C12.4228 18.3477 15.2928 14.0427 19.0033 12.1977L16.1538 8.2002C10.5573 10.8652 5.04279 16.9742 5.98579 24.7027C6.58029 29.5817 9.40929 32.8002 13.4068 32.8002C15.1493 32.8002 16.6048 32.2877 17.7528 31.2627C18.9008 30.2377 19.4543 28.8437 19.4543 27.1012ZM35.9568 27.1012C35.9568 25.5842 35.5468 24.2722 34.7063 23.2062C33.4148 21.6072 30.9548 21.4022 29.5198 21.7302C28.9253 18.3477 31.7953 14.0427 35.5058 12.1977L32.6563 8.2002C27.0598 10.8652 21.5658 16.9742 22.5088 24.7027C23.1033 29.5817 25.9118 32.8002 29.9093 32.8002C31.6518 32.8002 33.1073 32.2877 34.2553 31.2627C35.4033 30.2377 35.9568 28.8437 35.9568 27.1012Z" fill="#55993C"/>
</svg>
