<svg width="136" height="130" viewBox="0 0 136 130" fill="none" xmlns="http://www.w3.org/2000/svg">
<rect width="136" height="130" fill="#FCFCFC"/>
<path d="M136 0H0V130H136V0Z" fill="#FCFCFC"/>
<path d="M132.477 3.1709H3.52344V62.1465H132.477V3.1709Z" fill="#FCFCFC"/>
<path d="M66 6H8V59H66V6Z" fill="#FCFCFC"/>
<mask id="mask0" mask-type="alpha" maskUnits="userSpaceOnUse" x="8" y="6" width="58" height="53">
<path d="M66 6H8V59H66V6Z" fill="#C4C4C4"/>
</mask>
<g mask="url(#mask0)">
<path d="M65.9916 6.00003L8.02344 58.9709L49.0356 96.4476L107.004 43.4767L65.9916 6.00003Z" fill="#1E4E85"/>
</g>
<path d="M129 6H70V59H129V6Z" fill="#55993C"/>
<path d="M95.8702 15.4713C97.4197 12.6388 101.907 12.6388 103.457 15.4713L121.378 48.2344C122.762 50.7628 120.717 53.7197 117.585 53.7197H81.7417C78.6101 53.7197 76.5652 50.7628 77.9484 48.2344L95.8702 15.4713Z" fill="#FCFCFC"/>
<path d="M94.0952 12.4034C94.0952 11.3527 95.0416 10.501 96.2092 10.501H103.118C104.285 10.501 105.232 11.3527 105.232 12.4034V19.0137H94.0952V12.4034Z" fill="#FCFCFC"/>
<path d="M132.124 68.4878H3.87549V126.829H132.124V68.4878Z" fill="#FCFCFC"/>
<path d="M65.7824 72H8V124H65.7824V72Z" fill="#55993C"/>
<path d="M8.60059 81.3011L11.8359 117.321L15.0712 111.869L18.3065 107.352L21.5418 102.506L24.7771 89.5626L28.0124 112.475L31.2476 103.607L34.4829 73.9758L37.7182 105.48L40.9535 83.6694L44.1888 105.094L47.4241 109.335L50.6594 99.5315L53.8947 96.6125L57.13 116.22L60.3653 80.0343L63.6006 123.325" stroke="#FCFCFC" stroke-width="2.5"/>
<path d="M69.6269 124L129 124V72H69.6269V124Z" fill="#FCFCFC"/>
<mask id="mask1" mask-type="alpha" maskUnits="userSpaceOnUse" x="69" y="72" width="60" height="52">
<path d="M69.6269 124L129 124V72H69.6269V124Z" fill="#C4C4C4"/>
</mask>
<g mask="url(#mask1)">
<path d="M69.6361 124L128.977 72.0286L86.9935 35.259L27.653 87.2305L69.6361 124Z" fill="#1E4E85"/>
</g>
</svg>
