<svg width="41" height="41" viewBox="0 0 41 41" fill="none" xmlns="http://www.w3.org/2000/svg">
<path d="M21.5457 13.8988C21.5457 15.4158 21.9557 16.7278 22.7962 17.7938C24.0672 19.3928 26.5477 19.5978 27.9827 19.2698C28.5772 22.6523 25.7072 26.9573 21.9967 28.8023L24.8462 32.7998C30.4427 30.1348 35.9572 24.0258 35.0142 16.2973C34.4197 11.4183 31.5907 8.19981 27.5932 8.19981C25.8507 8.19981 24.3952 8.71231 23.2472 9.7373C22.0992 10.7623 21.5457 12.1563 21.5457 13.8988ZM5.04321 13.8988C5.04321 15.4158 5.45321 16.7278 6.29371 17.7938C7.58521 19.3928 10.0452 19.5978 11.4802 19.2698C12.0747 22.6523 9.20471 26.9573 5.49421 28.8023L8.34371 32.7998C13.9402 30.1348 19.4342 24.0258 18.4912 16.2973C17.8967 11.4183 15.0882 8.19981 11.0907 8.19981C9.34821 8.19981 7.89271 8.71231 6.74471 9.7373C5.59671 10.7623 5.04321 12.1563 5.04321 13.8988Z" fill="#55993C"/>
</svg>
